<svg id="Layer_1" data-name="Layer 1" xmlns="http://www.w3.org/2000/svg" xmlns:xlink="http://www.w3.org/1999/xlink" viewBox="0 0 25 19"><defs><style>.cls-1{fill:url(#linear-gradient);}</style><linearGradient id="linear-gradient" x1="12.5" y1="1.09" x2="12.5" y2="19.91" gradientTransform="matrix(1, 0, 0, -1, 0, 20)" gradientUnits="userSpaceOnUse"><stop offset="0" stop-color="#a73000"/><stop offset="1" stop-color="#e24302"/></linearGradient></defs><path id="Fill_12" data-name="Fill 12" class="cls-1" d="M24,12.79,21.47,9.5,16.81,3.39,15.38,1.54a3.59,3.59,0,0,0-5-.73,3.83,3.83,0,0,0-.72.73L8.2,3.39,3.53,9.5,1,12.79a3.85,3.85,0,0,0,.61,5.3,3.59,3.59,0,0,0,5.15-.63L8.2,15.6l3.71-4.86L10.1,6.91l1.54,2L12.5,10l4.3,5.63,1.42,1.85a3.6,3.6,0,0,0,5.16.64,3.88,3.88,0,0,0,.6-5.31"/></svg>