<?xml version="1.0" encoding="utf-8"?>
<!-- Generator: Adobe Illustrator 27.1.1, SVG Export Plug-In . SVG Version: 6.00 Build 0)  -->
<svg version="1.1" id="logo" xmlns="http://www.w3.org/2000/svg" xmlns:xlink="http://www.w3.org/1999/xlink" x="0px" y="0px"
	 viewBox="0 0 35.43 27.15" style="enable-background:new 0 0 35.43 27.15;" xml:space="preserve">
<style type="text/css">
	.st0{fill:url(#Fill_12_00000099623115941614819690000016432195271823864969_);}
</style>
<linearGradient id="Fill_12_00000124124149460488735850000015061016079374021524_" gradientUnits="userSpaceOnUse" x1="17.7129" y1="27.1546" x2="17.7129" y2="-9.094947e-13">
	<stop  offset="0" style="stop-color:#A73000"/>
	<stop  offset="1" style="stop-color:#E24302"/>
</linearGradient>
<path id="Fill_12" style="fill:url(#Fill_12_00000124124149460488735850000015061016079374021524_);" d="M34.29,18.33l-3.63-4.75
	l-6.72-8.82l-2.06-2.68c-1.72-2.3-4.98-2.76-7.28-1.04c-0.39,0.3-0.74,0.64-1.04,1.04l-2.05,2.68l-6.74,8.82l-3.63,4.75
	c-1.81,2.38-1.42,5.76,0.88,7.66c0.92,0.75,2.08,1.16,3.27,1.16c1.64,0,3.18-0.77,4.16-2.08l2.05-2.68l5.37-7.02l-2.62-5.53
	l2.23,2.9l1.24,1.53l6.21,8.13l2.05,2.68c0.99,1.31,2.53,2.08,4.17,2.08c1.19,0,2.35-0.41,3.27-1.16
	C35.71,24.09,36.1,20.71,34.29,18.33"/>
</svg>
